<svg width="160" height="46" viewBox="0 0 160 46" fill="none" xmlns="http://www.w3.org/2000/svg">
<path d="M10.316 45.9538C9.90278 45.9538 9.49958 45.9491 9.08963 45.9409C8.2404 45.9312 7.39315 45.8657 6.55484 45.7452C5.77315 45.626 5.01591 45.4044 4.30809 45.0876C3.60675 44.7734 2.96708 44.3614 2.41358 43.8674C1.85206 43.3792 1.38457 42.813 1.02963 42.1912C0.670788 41.5654 0.422445 40.8946 0.293256 40.2022C0.153744 39.4582 0.0782619 38.7058 0.0674612 37.9517C0.0588633 37.6986 0.0476074 36.8558 0.0476074 36.8558V9.1293C0.0476074 9.1293 0.0595957 8.29943 0.067529 8.05562C0.0778706 7.30269 0.152914 6.55153 0.292009 5.80867C0.421436 5.11435 0.669971 4.44161 1.02901 3.81373C1.38264 3.19238 1.84753 2.62576 2.40567 2.13584C2.96318 1.64127 3.6049 1.22716 4.30742 0.908622C5.01362 0.592816 5.76943 0.372737 6.54954 0.255758C7.3906 0.134012 8.24079 0.0681898 9.09297 0.0588445L10.3166 0.0441895H149.684L150.922 0.0594327C151.767 0.0683136 152.609 0.133548 153.442 0.254581C154.23 0.373028 154.994 0.594643 155.708 0.912139C157.116 1.55409 158.261 2.56971 158.983 3.81666C159.337 4.4402 159.581 5.10746 159.709 5.79578C159.85 6.54474 159.929 7.30179 159.945 8.06091C159.949 8.40082 159.949 8.76593 159.949 9.1293C159.96 9.57939 159.96 10.0078 159.96 10.4397V35.5594C159.96 35.9954 159.96 36.4209 159.949 36.8499C159.949 37.2402 159.949 37.5978 159.944 37.9658C159.928 38.7113 159.85 39.4549 159.712 40.1904C159.585 40.8878 159.338 41.5639 158.98 42.1948C158.622 42.8099 158.157 43.3712 157.602 43.858C157.048 44.3547 156.407 44.7691 155.704 45.0853C154.992 45.4045 154.23 45.627 153.442 45.7452C152.604 45.8664 151.757 45.9318 150.908 45.9409C150.51 45.9491 150.094 45.9538 149.691 45.9538L148.221 45.9562L10.316 45.9538Z" fill="black"/>
</svg>
